<?xml version="1.0" encoding="UTF-8"?>
<svg id="Layer_1" xmlns="http://www.w3.org/2000/svg" version="1.1" viewBox="0 0 600 600">
  <!-- Generator: Adobe Illustrator 29.7.1, SVG Export Plug-In . SVG Version: 2.1.1 Build 8)  -->
  <defs>
    <style>
      .st0 {
        fill: #fff;
      }

      .st1 {
        fill: #299afd;
      }
    </style>
  </defs>
  <path class="st1" d="M299.74,0C134.46,0,0,134.47,0,299.75s134.46,299.74,299.74,299.74,299.75-134.46,299.75-299.74S465.02,0,299.74,0Z"/>
  <g>
    <path class="st0" d="M282.34,236.44h143.66c.22-.03,5.42.06,8.06-4.9l7.29-14.26c.7-1.36.63-2.96-.16-4.26-.8-1.31-2.19-2.09-3.72-2.09h-141.26c-.39,0-.6-.24-.69-.38-.09-.14-.21-.43-.03-.78l23.6-46.17c.7-1.36.63-2.96-.16-4.27-.8-1.31-2.19-2.09-3.72-2.09h-24.37c-1.65,0-3.14.91-3.89,2.38l-26.01,50.87c-.14.27-.41.44-.71.44H76.45c-1.65,0-3.13.91-3.89,2.38l-7.77,15.22c-.19.31-1.84,3.12-.53,5.53.86,1.6,2.67,2.44,5.34,2.51,19.66.79,85.45,6.7,106.83,49.45,7.91,15.83,15.85,53.63-19.95,128.83l-5.61,11.79c-.7,1.36-.63,2.96.16,4.26s2.19,2.09,3.72,2.09h24.37c1.65,0,3.14-.91,3.89-2.38l98.61-193.73c.14-.27.41-.43.71-.43ZM245.9,238.78l-32.24,63.08c-.25.48-.69.46-.86.43-.21-.04-.57-.17-.64-.67-2.08-16.9-10.97-47.49-47.11-62.45-.59-.24-.56-.74-.52-.94.06-.28.23-.62.77-.62h79.88c.39,0,.6.24.68.38.09.14.21.44.03.78Z"/>
    <path class="st0" d="M427.72,307.21h105.92c1.7-.09,5.95-.75,8.3-5.16l7.28-14.25c.77-1.5.7-3.26-.18-4.69-.88-1.44-2.42-2.3-4.11-2.3h-230.19c-1.81,0-3.45,1.01-4.28,2.62l-7.71,15.11c-.35.58-1.97,3.48-.58,6.04.7,1.3,1.95,2.1,3.92,2.52l74.95.1c1.94.17,3.2.75,3.79,1.7.47.76.49,1.74.05,2.82l-.41.81-73.15,143.68c-.77,1.5-.7,3.26.18,4.7.88,1.44,2.41,2.3,4.1,2.3h24.37c1.82,0,3.46-1,4.28-2.62l76.85-149.58c.64-1.07,2.54-3.53,6.63-3.8Z"/>
  </g>
</svg>